<?xml version="1.0" encoding="UTF-8" standalone="no"?>
<!DOCTYPE svg PUBLIC "-//W3C//DTD SVG 1.1//EN" "http://www.w3.org/Graphics/SVG/1.1/DTD/svg11.dtd">
<svg width="100%" height="100%" viewBox="0 0 2481 3508" version="1.1" xmlns="http://www.w3.org/2000/svg" xmlns:xlink="http://www.w3.org/1999/xlink" xml:space="preserve" xmlns:serif="http://www.serif.com/" style="fill-rule:evenodd;clip-rule:evenodd;stroke-linejoin:round;stroke-miterlimit:2;">
    <path d="M803,1344C803,1344 1026.242,1228.047 1197.739,1227.997C1365.831,1227.948 1598,1342 1598,1342C1598,1342 1601.236,1568.682 1494.15,1743.588C1369.117,1947.806 1203,2035 1203,2035C1203,2035 1027.862,1947.157 906.868,1737.909C791.33,1538.096 803,1344 803,1344Z" style="fill:rgb(108,216,235);"/>
    <path d="M803,1344C803,1344 868.91,1453.393 982.739,1447.997C992.627,1447.528 1199.428,1509.452 1199.428,1509.452C1199.428,1509.452 1375.577,1447.684 1422.552,1449.829C1522.846,1454.408 1598,1342 1598,1342C1598,1342 1601.236,1568.682 1494.15,1743.588C1369.117,1947.806 1203,2035 1203,2035C1203,2035 1027.862,1947.157 906.868,1737.909C791.33,1538.096 803,1344 803,1344Z" style="fill:rgb(49,169,225);"/>
    <path d="M1202,2035C1202,2035 1055.837,1917.969 1014.582,1782.014C964.717,1617.686 983,1447 983,1447L1202,1356L1424,1447C1424,1447 1438.67,1640.47 1387.085,1775.235C1310.599,1975.051 1202,2035 1202,2035Z" style="fill:rgb(41,100,223);"/>
    <g transform="matrix(2.476075,0,0,2.476075,583.908705,1156.872307)">
        <path d="M253.032,207.916L253.032,219.531C253.032,221.703 251.272,223.463 249.1,223.463C246.928,223.463 245.167,221.703 245.167,219.531L245.167,207.916C240.366,206.278 236.909,201.74 236.909,196.385C236.909,189.652 242.367,184.194 249.1,184.194C255.833,184.194 261.29,189.652 261.29,196.385C261.29,201.74 257.833,206.278 253.032,207.916ZM219.563,143.2C219.563,126.914 232.813,113.664 249.1,113.664C265.386,113.664 278.637,126.914 278.637,143.2L278.637,167.487L219.563,167.487L219.563,143.2ZM290.637,167.487L290.637,143.2C290.637,120.297 272.004,101.664 249.1,101.664C226.196,101.664 207.563,120.297 207.563,143.2L207.563,167.487L198.693,167.487L198.693,267.878L209.252,267.878L209.252,217.948C207.334,217.315 205.941,215.529 205.941,213.4C205.941,210.743 208.095,208.589 210.752,208.589C213.409,208.589 215.562,210.743 215.562,213.4C215.562,215.529 214.17,217.315 212.252,217.948L212.252,267.878L228.451,267.878L228.451,241.49C226.534,240.856 225.14,239.071 225.14,236.941C225.14,234.284 227.295,232.13 229.951,232.13C232.608,232.13 234.762,234.284 234.762,236.941C234.762,239.071 233.369,240.856 231.451,241.49L231.451,267.878L247.6,267.878L247.6,261.572C245.682,260.938 244.289,259.154 244.289,257.024C244.289,254.366 246.443,252.213 249.1,252.213C251.757,252.213 253.911,254.366 253.911,257.024C253.911,259.154 252.517,260.938 250.6,261.572L250.6,267.878L267.602,267.878L267.602,251.95C265.684,251.317 264.291,249.532 264.291,247.402C264.291,244.745 266.445,242.591 269.102,242.591C271.759,242.591 273.913,244.745 273.913,247.402C273.913,249.532 272.519,251.317 270.602,251.95L270.602,267.878L286.704,267.878L286.704,244.895L280.03,238.22L280.03,224.471C278.113,223.837 276.719,222.052 276.719,219.922C276.719,217.265 278.873,215.111 281.53,215.111C284.187,215.111 286.341,217.265 286.341,219.922C286.341,222.052 284.948,223.837 283.03,224.471L283.03,236.978L289.704,243.652L289.704,267.878L299.507,267.878L299.507,167.487L290.637,167.487Z" style="fill:white;fill-rule:nonzero;"/>
    </g>
</svg>
